<?xml version="1.0" encoding="UTF-8"?>
<svg id="Layer_1" data-name="Layer 1" xmlns="http://www.w3.org/2000/svg" viewBox="0 0 69.1 35">
  <path d="m6.05,35l2.05-11.5L0,2.75.5,0h.75l8.95,22.75-2.15,12.25h-2Zm3,0l2.15-12.25L2.25,0h2.5l8.6,22-2.3,13h-2Zm3,0l2.3-13L5.75,0h2.5l8.3,21-2.5,14h-2Zm2-22.75L9.25,0h2.5l3.95,10.25-1.65,2Zm1.25,3l-.85-2.25L24.25,0h2.5l-11.45,15.25Zm-.25,19.75l2.15-12.25,1.4,3.55-1.55,8.7h-2Zm1.45-16.65l-.9-2.1L27.75,0h2.5l-13.75,18.35Zm1.2,3.05l-.85-2.15L31.25,0h2.5l-16.05,21.4Zm1.2,3.1l-.85-2.2L34.75,0h.75l-.5,2.75-16.1,21.75Z"/>
  <path d="m33.05,35L39.2,0h2l-6.15,35h-2Zm3,0L42.2,0h2l-6.15,35h-2Zm3,0L45.2,0h2l-6.15,35h-2Zm3,0L48.2,0h2l-6.15,35h-2Zm3,0l.3-1.75h3.8c10.5,0,17.95-6.7,17.95-17.5,0-7.85-5.5-14-14.9-14h-1.3l.3-1.75h1.3c10.55,0,16.6,7,16.6,15.7,0,11.75-8.25,19.3-20.05,19.3h-4Zm.45-2.5l.3-1.75h3.25c8.6,0,15.05-5.6,15.05-14.75,0-6.7-4.65-11.75-12.35-11.75h-1.3l.35-1.75h1.25c8.8,0,14.05,5.9,14.05,13.35,0,10.15-7.2,16.65-17.05,16.65h-3.55Zm.45-2.5l.3-1.75h2.85c6.65,0,12-4.55,12-12,0-5.45-3.9-9.5-9.8-9.5h-1.25l.3-1.75h1.25c7.05.1,11.5,4.8,11.5,11.2,0,8.5-6.2,13.8-14.1,13.8h-3.05Zm.4-2.5l.35-1.75h2.3c4.7,0,9.05-3.45,9.05-9.25,0-4.3-3-7.25-7.15-7.25h-1.3l.3-1.75h1.3c5.25,0,8.9,3.75,8.9,8.8,0,7-5.15,11.2-11.15,11.2h-2.6Z"/>
</svg>