<?xml version="1.0" encoding="utf-8"?>
<!-- Generator: Adobe Illustrator 27.3.1, SVG Export Plug-In . SVG Version: 6.00 Build 0)  -->
<svg version="1.1" id="Layer_1" xmlns="http://www.w3.org/2000/svg" xmlns:xlink="http://www.w3.org/1999/xlink" x="0px" y="0px"
	 viewBox="0 0 200 200" style="enable-background:new 0 0 200 200;" xml:space="preserve">
<path d="M73.4,115.5l2.05-11.5l-8.1-20.75l0.5-2.75h0.75l8.95,22.75L75.4,115.5H73.4z M76.4,115.5l2.15-12.25L69.6,80.5h2.5l8.6,22
	l-2.3,13H76.4z M79.4,115.5l2.3-13l-8.6-22h2.5l8.3,21l-2.5,14H79.4z M81.4,92.75L76.6,80.5h2.5l3.95,10.25L81.4,92.75z
	 M82.65,95.75L81.8,93.5l9.8-13h2.5L82.65,95.75z M82.4,115.5l2.15-12.25l1.4,3.55l-1.55,8.7H82.4z M83.85,98.85l-0.9-2.1L95.1,80.5
	h2.5L83.85,98.85z M85.05,101.9l-0.85-2.15L98.6,80.5h2.5L85.05,101.9z M86.25,105l-0.85-2.2l16.7-22.3h0.75l-0.5,2.75L86.25,105z"
	/>
<path d="M100.4,115.5l6.15-35h2l-6.15,35H100.4z M103.4,115.5l6.15-35h2l-6.15,35H103.4z M106.4,115.5l6.15-35h2l-6.15,35H106.4z
	 M109.4,115.5l6.15-35h2l-6.15,35H109.4z M112.4,115.5l0.3-1.75h3.8c10.5,0,17.95-6.7,17.95-17.5c0-7.85-5.5-14-14.9-14h-1.3
	l0.3-1.75h1.3c10.55,0,16.6,7,16.6,15.7c0,11.75-8.25,19.3-20.05,19.3H112.4z M112.85,113l0.3-1.75h3.25
	c8.6,0,15.05-5.6,15.05-14.75c0-6.7-4.65-11.75-12.35-11.75h-1.3l0.35-1.75h1.25c8.8,0,14.05,5.9,14.05,13.35
	c0,10.15-7.2,16.65-17.05,16.65H112.85z M113.3,110.5l0.3-1.75h2.85c6.65,0,12-4.55,12-12c0-5.45-3.9-9.5-9.8-9.5h-1.25l0.3-1.75
	h1.25c7.05,0.1,11.5,4.8,11.5,11.2c0,8.5-6.2,13.8-14.1,13.8H113.3z M113.7,108l0.35-1.75h2.3c4.7,0,9.05-3.45,9.05-9.25
	c0-4.3-3-7.25-7.15-7.25h-1.3l0.3-1.75h1.3c5.25,0,8.9,3.75,8.9,8.8c0,7-5.15,11.2-11.15,11.2H113.7z"/>
</svg>
